:SAMPLES-PER-SECOND 30
:FULLY-SPECIFIED
:DEGREES
371
root  34.6609 37.7719 -3.62367 171.994 -39.4205 179.151
RightUpLeg  -15.0944 -5.80385 -3.96953
RightLeg  9.86028 7.9432 0.756228
RightFoot  9.18691 -0.431855 2.75373
RightToes  -1.33073e-015 0 -3.6325e-017
Spine  11.4725 -2.89352 2.18363
Spine1  10.0983 -4.02261 3.78453
HEad  -6.48751 -49.9908 -15.6027
LeftShoulder1  0.402279 2.38933 -29.9751
LeftArm  -2.909 12.9256 -44.3271
LeftForeArm  23.663 -11.3154 -7.74095
LeftHand  -0.0322687 4.73342 1.37722
RightShoulder  -0.448595 -4.89696 25.3083
RightArm  11.871 -4.53448 46.3506
RightForeArm  -3.10562 13.2316 5.91619
RightHand  -1.02395 8.26319 -9.04413
LeftUpLeg  20.5305 0.603491 0.696644
LeftLeg  16.212 -4.92208 -0.462332
LeftFoot  -20.9792 0.250932 1.49242
LeftToes  -1.03319e-009 7.52634e-011 -3.26162e-012
372
root  33.9525 37.6732 -4.78328 171.065 -39.5185 -179.358
RightUpLeg  -15.6966 -5.06709 -3.09783
RightLeg  15.2713 6.577 1.68532
RightFoot  7.38003 -0.345001 2.39438
RightToes  -1.33073e-015 0 -3.6325e-017
Spine  11.1391 -2.87237 5.64229
Spine1  9.88914 -3.0363 1.75267
HEad  -8.36462 -48.2689 -13.6409
LeftShoulder1  0.396573 2.39939 -29.7976
LeftArm  -4.51151 14.9119 -43.7106
LeftForeArm  23.9875 -11.2082 -7.29923
LeftHand  -0.0460344 3.8831 2.04077
RightShoulder  -0.530293 -5.11414 26.1294
RightArm  9.93787 -4.74387 46.259
RightForeArm  -2.81309 10.0994 6.09174
RightHand  -1.06684 8.37882 -9.34893
LeftUpLeg  20.2145 -0.675804 2.35279
LeftLeg  21.0293 -4.5777 -1.71774
LeftFoot  -20.2178 0.0146634 -1.39846
LeftToes  -1.03319e-009 7.52634e-011 -3.26162e-012
373
root  33.3329 37.6875 -5.84069 170.826 -40.106 -178.265
RightUpLeg  -15.7957 -5.11835 -2.26374
RightLeg  18.6943 5.94704 1.97994
RightFoot  4.44253 -0.230161 1.87614
RightToes  -1.33073e-015 0 -3.6325e-017
Spine  10.8268 -2.94669 7.95303
Spine1  9.45374 -2.47486 1.11508
HEad  -9.32815 -45.8835 -12.3961
LeftShoulder1  0.371283 2.47641 -30.0359
LeftArm  -6.35892 16.5174 -42.9704
LeftForeArm  23.8796 -11.0479 -6.7025
LeftHand  -0.0317563 4.39675 1.06714
RightShoulder  -0.585184 -5.25937 26.5848
RightArm  9.38723 -4.76607 46.5017
RightForeArm  -1.84139 7.55451 6.14768
RightHand  -1.02112 6.94215 -9.91526
LeftUpLeg  17.7669 0.327942 4.78005
LeftLeg  27.7939 -6.73805 -3.53448
LeftFoot  -16.7929 -0.113905 -4.72973
LeftToes  -1.03319e-009 7.52634e-011 -3.26162e-012
374
root  32.8086 37.7878 -6.83181 171.099 -42.1976 -177.459
RightUpLeg  -15.5364 -5.14136 -1.84019
RightLeg  20.7646 4.01347 1.42899
RightFoot  1.84036 -0.138626 1.31064
RightToes  -1.33073e-015 0 -3.6325e-017
Spine  10.2701 -3.31552 8.32547
Spine1  9.06054 -2.90585 2.49243
HEad  -8.96255 -43.843 -12.3966
LeftShoulder1  0.347556 2.54829 -30.2704
LeftArm  -7.27404 17.3288 -42.5969
LeftForeArm  22.2227 -10.7634 -6.44375
LeftHand  -0.0318713 4.81735 1.18565
RightShoulder  -0.528435 -5.10802 26.1482
RightArm  9.52025 -5.32192 47.047
RightForeArm  -0.692851 7.17423 6.16379
RightHand  -0.962117 6.76218 -9.50922
LeftUpLeg  12.5248 0.803634 6.91325
LeftLeg  36.8938 -7.05201 -5.24392
LeftFoot  -9.32373 0.200605 -7.5569
LeftToes  -1.03319e-009 7.52634e-011 -3.26162e-012
375
root  32.2979 37.9732 -7.75677 170.957 -45.0352 -176.565
RightUpLeg  -14.0063 -7.42103 -1.58195
RightLeg  21.1034 3.42324 1.28168
RightFoot  -0.260573 -0.089526 0.907458
RightToes  -1.33073e-015 0 -3.6325e-017
Spine  10.1983 -3.75782 8.907
Spine1  8.22773 -3.28912 3.38442
HEad  -7.94331 -42.3731 -12.341
LeftShoulder1  0.372018 2.46737 -29.7792
LeftArm  -6.52649 17.9862 -42.7207
LeftForeArm  21.1568 -11.8436 -6.36799
LeftHand  -0.038243 4.38393 1.73042
RightShoulder  -0.556169 -5.19085 26.1981
RightArm  9.88605 -6.09768 46.8665
RightForeArm  0.321506 7.98326 6.18902
RightHand  -0.912935 7.29065 -8.68353
LeftUpLeg  6.38091 0.637061 8.16246
LeftLeg  45.6635 -4.35291 -4.30383
LeftFoot  1.91133 0.760511 -7.19027
LeftToes  -1.03319e-009 7.52634e-011 -3.26162e-012
376
root  31.7651 38.0823 -8.56639 170.346 -46.9283 -175.837
RightUpLeg  -12.1242 -9.71927 -1.59601
RightLeg  21.5057 3.7196 1.74301
RightFoot  -2.34231 -0.0724216 0.719281
RightToes  -1.33073e-015 0 -3.6325e-017
Spine  10.2283 -3.93209 10.4629
Spine1  8.57995 -2.98217 2.89499
HEad  -10.8628 -40.533 -8.10689
LeftShoulder1  0.363114 2.48636 -29.5728
LeftArm  -4.94601 17.6661 -42.9148
LeftForeArm  20.3641 -14.2868 -5.88877
LeftHand  -0.0288111 4.62634 0.758901
RightShoulder  -0.55144 -5.18636 26.0013
RightArm  11.2235 -6.22143 46.7673
RightForeArm  -0.094941 9.80043 6.45132
RightHand  -0.919551 7.33204 -8.71781
LeftUpLeg  1.17343 1.49352 8.72177
LeftLeg  52.7782 -1.09547 -1.08792
LeftFoot  9.5804 0.564029 -3.20952
LeftToes  -1.03319e-009 7.52634e-011 -3.26162e-012
377
root  31.1891 38.3649 -9.45482 170.461 -48.0956 -176.433
RightUpLeg  -9.09784 -10.4194 -2.376
RightLeg  20.2058 3.36268 1.78182
RightFoot  -3.65128 -0.0636336 0.589481
RightToes  -1.33073e-015 0 -3.6325e-017
Spine  10.596 -3.55927 10.475
Spine1  8.30758 -2.41519 2.25233
HEad  -10.7984 -40.0077 -7.26174
LeftShoulder1  0.336123 2.56174 -29.5681
LeftArm  -2.42202 18.0966 -43.0319
LeftForeArm  19.1694 -18.2455 -4.84493
LeftHand  -0.0360548 3.295 1.02739
RightShoulder  -0.573746 -5.2526 26.0558
RightArm  13.7565 -5.54128 46.3172
RightForeArm  -1.26316 11.3417 6.82885
RightHand  -0.999373 7.70804 -9.19093
LeftUpLeg  -2.64418 3.59152 8.33472
LeftLeg  57.0747 0.763657 1.73568
LeftFoot  6.98732 0.343386 -2.37671
LeftToes  -1.03319e-009 7.52634e-011 -3.26162e-012
378
root  30.5946 38.6095 -10.283 171.292 -48.9482 -177.68
RightUpLeg  -6.48331 -11.1342 -3.59481
RightLeg  19.062 3.47889 2.03412
RightFoot  -4.85434 -0.0679663 0.628452
RightToes  -1.33073e-015 0 -3.6325e-017
Spine  10.8237 -3.12496 10.4737
Spine1  7.86699 -1.6753 1.04864
HEad  -11.5212 -37.7483 -5.27416
LeftShoulder1  0.303861 2.65581 -29.7148
LeftArm  -1.36837 18.2764 -42.8665
LeftForeArm  18.5096 -21.7453 -4.13048
LeftHand  -0.0490376 2.72275 1.55183
RightShoulder  -0.5796 -5.27613 25.9447
RightArm  16.427 -4.68087 46.0313
RightForeArm  -1.96888 12.8034 6.99338
RightHand  -1.04793 8.39579 -9.16506
LeftUpLeg  -6.11241 5.97527 6.98816
LeftLeg  58.3647 0.553545 1.50157
LeftFoot  4.80185 0.174715 -1.46271
LeftToes  -1.03319e-009 7.52634e-011 -3.26162e-012
379
root  29.9785 38.7515 -11.052 172.161 -50.3359 -178.227
RightUpLeg  -4.65642 -11.5055 -4.29844
RightLeg  18.2752 2.58812 1.99869
RightFoot  -6.22091 -0.078534 0.773514
RightToes  -1.33073e-015 0 -3.6325e-017
Spine  10.1849 -2.92012 10.9531
Spine1  7.74144 -1.27963 0.0140172
HEad  -11.3322 -36.0869 -4.68791
LeftShoulder1  0.345244 2.53313 -29.4574
LeftArm  -1.75165 18.6368 -42.9738
LeftForeArm  18.4819 -25.0703 -4.34062
LeftHand  -0.0648944 2.67548 2.1962
RightShoulder  -0.513048 -5.09441 25.4549
RightArm  17.9031 -4.11911 46.1518
RightForeArm  -2.37257 14.3701 6.70277
RightHand  -1.04194 8.17112 -9.25455
LeftUpLeg  -10.062 7.34272 5.4438
LeftLeg  57.6128 -0.19496 0.207383
LeftFoot  2.95975 0.224732 -1.92089
LeftToes  -1.03319e-009 7.52634e-011 -3.26162e-012
380
root  29.3228 38.8913 -11.8177 172.901 -51.6532 -178.927
RightUpLeg  -2.34038 -12.0612 -5.22898
RightLeg  17.2052 1.93318 2.20579
RightFoot  -7.3592 -0.077058 0.78696
RightToes  -1.33073e-015 0 -3.6325e-017
Spine  10.1701 -2.61879 11.0252
Spine1  6.91156 -0.893651 -0.826163
HEad  -10.5746 -34.3782 -4.69942
LeftShoulder1  0.39246 2.3895 -29.092
LeftArm  -3.46514 18.8815 -43.5768
LeftForeArm  19.8469 -27.2184 -4.79191
LeftHand  -0.0854541 2.26449 2.79354
RightShoulder  -0.529075 -5.16174 25.1171
RightArm  18.8192 -3.79914 45.9001
RightForeArm  -3.99009 15.8389 6.33564
RightHand  -1.0778 8.46998 -9.359
LeftUpLeg  -12.9924 8.92471 3.72067
LeftLeg  54.2943 -1.18559 -1.29366
LeftFoot  0.922362 0.163673 -1.58469
LeftToes  -1.03319e-009 7.52634e-011 -3.26162e-012
